<?xml version="1.0" encoding="UTF-8"?>
<svg version="1.1" xmlns="http://www.w3.org/2000/svg" width="45" height="42">
<path d="M0 0 C14.85 0 29.7 0 45 0 C45 13.86 45 27.72 45 42 C30.15 42 15.3 42 0 42 C0 28.14 0 14.28 0 0 Z " fill="#1F2938" transform="translate(0,0)"/>
<path d="M0 0 C0.66 0 1.32 0 2 0 C2.99 1.98 3.98 3.96 5 6 C4.67 4.02 4.34 2.04 4 0 C8.06698572 0.23463379 10.32562042 0.37886091 13.375 3.1875 C15.20338159 6.35200659 15.92535666 8.34247641 16 12 C14.71638128 15.63691971 13.6258903 17.51854592 10.5625 19.875 C8 21 8 21 4 21 C4.33 19.02 4.66 17.04 5 15 C3.34822227 16.65177773 2.82747709 18.84855958 2 21 C1.34 21 0.68 21 0 21 C-0.185625 19.88625 -0.37125 18.7725 -0.5625 17.625 C-1.036875 16.42875 -1.51125 15.2325 -2 14 C-5.51400668 12.45913678 -5.51400668 12.45913678 -9 12 C-9 11.01 -9 10.02 -9 9 C-7.329375 8.7215625 -7.329375 8.7215625 -5.625 8.4375 C-4.42875 7.963125 -3.2325 7.48875 -2 7 C-0.45913678 3.48599332 -0.45913678 3.48599332 0 0 Z " fill="#5F63E8" transform="translate(22,12)"/>
<path d="M0 0 C1.32 0 2.64 0 4 0 C4.12375 0.928125 4.12375 0.928125 4.25 1.875 C4.81258459 4.18437567 4.81258459 4.18437567 7.0625 5.25 C7.701875 5.4975 8.34125 5.745 9 6 C7.68 6.33 6.36 6.66 5 7 C4.67 8.32 4.34 9.64 4 11 C2.68 11 1.36 11 0 11 C0 10.34 0 9.68 0 9 C-2.31 8.34 -4.62 7.68 -7 7 C-7 6.01 -7 5.02 -7 4 C-4.69 3.34 -2.38 2.68 0 2 C0 1.34 0 0.68 0 0 Z " fill="#5A5ED9" transform="translate(20,17)"/>
<path d="M0 0 C0.53625 0.391875 1.0725 0.78375 1.625 1.1875 C-0.23943924 4.72993456 -1.49619689 6.89456563 -5.375 8.1875 C-6.695 8.1875 -8.015 8.1875 -9.375 8.1875 C-9.25 5.375 -9.25 5.375 -8.375 2.1875 C-3.57766519 -1.22393809 -3.57766519 -1.22393809 0 0 Z " fill="#5C60DF" transform="translate(35.375,24.8125)"/>
<path d="M0 0 C6.4 0.36923077 6.4 0.36923077 9.4375 3.5625 C9.953125 4.366875 10.46875 5.17125 11 6 C10.67 6.66 10.34 7.32 10 8 C7 9 7 9 3.875 7.9375 C1 6 1 6 0.125 2.8125 C0.08375 1.884375 0.0425 0.95625 0 0 Z " fill="#5D61E1" transform="translate(26,12)"/>
<path d="M0 0 C0.99 0.33 1.98 0.66 3 1 C3 1.66 3 2.32 3 3 C4.32 3.66 5.64 4.32 7 5 C6.071875 5.12375 6.071875 5.12375 5.125 5.25 C2.81562433 5.81258459 2.81562433 5.81258459 1.75 8.0625 C1.5025 8.701875 1.255 9.34125 1 10 C-0.65 8.02 -2.3 6.04 -4 4 C-2.68 2.68 -1.36 1.36 0 0 Z " fill="#252E47" transform="translate(22,18)"/>
<path d="M0 0 C-0.75 2.4375 -0.75 2.4375 -2 5 C-4.125 5.8125 -4.125 5.8125 -6 6 C-3.84615385 0 -3.84615385 0 0 0 Z " fill="#27304E" transform="translate(35,24)"/>
<path d="M0 0 C1.875 0.1875 1.875 0.1875 4 1 C5.25 3.5625 5.25 3.5625 6 6 C3.5625 5.25 3.5625 5.25 1 4 C0.1875 1.875 0.1875 1.875 0 0 Z " fill="#27304F" transform="translate(29,15)"/>
<path d="M0 0 C1.32 0.33 2.64 0.66 4 1 C3.34 1 2.68 1 2 1 C1.34 2.32 0.68 3.64 0 5 C-1.32 4.34 -2.64 3.68 -4 3 C-2.68 2.67 -1.36 2.34 0 2 C0 1.34 0 0.68 0 0 Z " fill="#555ACC" transform="translate(20,17)"/>
</svg>
